<svg width="1440" height="900" viewBox="0 0 1440 900" fill="none" xmlns="http://www.w3.org/2000/svg">
  <style>
    .sans { font-family: -apple-system, BlinkMacSystemFont, "Segoe UI", sans-serif; }
    .mono { font-family: SFMono-Regular, Menlo, Consolas, monospace; }
    .title { font-size: 22px; font-weight: 800; fill: #17202a; }
    .body { font-size: 15px; fill: #5f6b76; }
    .muted { font-size: 13px; fill: #89939d; }
    .small { font-size: 12px; font-weight: 800; }
  </style>
  <rect width="1440" height="900" rx="34" fill="#f7f8fa"/>
  <rect x="34" y="34" width="1372" height="832" rx="24" fill="#ffffff" stroke="#dfe5ea"/>

  <rect x="34" y="34" width="1372" height="76" rx="24" fill="#f7f8fa"/>
  <rect x="34" y="96" width="1372" height="1" fill="#dfe5ea"/>
  <g transform="translate(58 52) scale(0.38)">
    <rect x="0" y="0" width="72" height="72" rx="14" fill="#12191e"/>
    <rect x="18" y="18" width="36" height="28" rx="5" fill="#f7f2e6"/>
    <rect x="23" y="23" width="26" height="18" rx="3" fill="#182026"/>
    <path d="M27 28l8 6-8 6" stroke="#f2b84b" stroke-width="5" stroke-linecap="round" stroke-linejoin="round"/>
    <path d="M39 39h9" stroke="#f7f2e6" stroke-width="4" stroke-linecap="round"/>
    <circle cx="20" cy="58" r="4" fill="#3b82f6"/>
    <circle cx="36" cy="62" r="4" fill="#15a074"/>
    <circle cx="52" cy="58" r="4" fill="#cf7654"/>
  </g>
  <text x="96" y="67" class="sans title">KAGE</text>
  <text x="96" y="88" class="sans muted">342 sessions in /Users/levi/wrksp/kage</text>
  <rect x="640" y="52" width="330" height="36" rx="8" fill="#ffffff" stroke="#dfe5ea"/>
  <text x="662" y="75" class="mono muted">/Users/levi/wrksp/kage</text>
  <rect x="988" y="52" width="78" height="36" rx="8" fill="#ffffff" stroke="#dfe5ea"/>
  <text x="1010" y="75" class="sans small" fill="#5f6b76">Light</text>
  <rect x="1080" y="52" width="126" height="36" rx="8" fill="#ffffff" stroke="#dfe5ea"/>
  <text x="1114" y="75" class="sans small" fill="#17202a">Refresh</text>
  <rect x="1218" y="52" width="150" height="36" rx="8" fill="#3b82f6"/>
  <text x="1250" y="75" class="sans small" fill="#ffffff">New Session</text>

  <rect x="58" y="128" width="344" height="738" rx="18" fill="#ffffff" stroke="#dfe5ea"/>
  <rect x="78" y="152" width="304" height="42" rx="8" fill="#f3f5f7" stroke="#dfe5ea"/>
  <rect x="82" y="156" width="98" height="34" rx="7" fill="#ffffff" stroke="#dfe5ea"/>
  <text x="113" y="178" class="sans small" fill="#17202a">Sessions</text>
  <text x="210" y="178" class="sans small" fill="#5f6b76">Board</text>
  <text x="291" y="178" class="sans small" fill="#5f6b76">Dispatch</text>
  <rect x="78" y="218" width="304" height="44" rx="8" fill="#f8fafc" stroke="#dfe5ea"/>
  <circle cx="100" cy="240" r="7" stroke="#89939d" stroke-width="2"/>
  <path d="M105 246l8 8" stroke="#89939d" stroke-width="2" stroke-linecap="round"/>
  <text x="126" y="246" class="sans body">Search sessions, cwd, lineage</text>

  <rect x="78" y="292" width="304" height="104" rx="8" fill="#edf5ff" stroke="#3b82f6"/>
  <text x="102" y="322" class="sans small" fill="#3b82f6">CODEX</text>
  <text x="102" y="352" class="sans" font-size="18" font-weight="800" fill="#17202a">Homepage screenshot refresh</text>
  <text x="102" y="376" class="mono muted">~/wrksp/kage</text>
  <rect x="324" y="316" width="34" height="22" rx="11" fill="#dbeafe"/>
  <text x="333" y="331" class="sans small" fill="#3b82f6">live</text>

  <rect x="78" y="412" width="304" height="96" rx="8" fill="#fff5ef" stroke="#f0c9b8"/>
  <text x="102" y="442" class="sans small" fill="#cf7654">CLAUDE</text>
  <text x="102" y="472" class="sans" font-size="18" font-weight="800" fill="#17202a">Markdown message layout</text>
  <text x="102" y="496" class="mono muted">~/wrksp/kage</text>

  <rect x="78" y="524" width="304" height="96" rx="8" fill="#effaf6" stroke="#b7e6d5"/>
  <text x="102" y="554" class="sans small" fill="#15a074">QODERCLI</text>
  <text x="102" y="584" class="sans" font-size="18" font-weight="800" fill="#17202a">Board status check</text>
  <text x="102" y="608" class="mono muted">~/wrksp/kage</text>

  <rect x="78" y="646" width="304" height="64" rx="8" fill="#f8fafc" stroke="#edf1f4"/>
  <text x="102" y="672" class="sans" font-size="15" font-weight="800" fill="#17202a">History window</text>
  <text x="102" y="696" class="sans muted">Recent 90d / 120 max</text>
  <text x="266" y="696" class="sans small" fill="#15a074">Load Full History</text>

  <rect x="430" y="128" width="936" height="738" rx="18" fill="#ffffff" stroke="#dfe5ea"/>
  <rect x="454" y="152" width="888" height="66" rx="12" fill="#f8fafc" stroke="#edf1f4"/>
  <rect x="474" y="170" width="34" height="34" rx="8" fill="#edf5ff"/>
  <text x="482" y="193" class="mono" font-size="16" font-weight="900" fill="#3b82f6">&gt;_</text>
  <text x="528" y="178" class="sans small" fill="#3b82f6">Codex</text>
  <text x="528" y="202" class="sans" font-size="18" font-weight="800" fill="#17202a">Homepage screenshot refresh</text>
  <rect x="1096" y="168" width="52" height="32" rx="8" fill="#ffffff" stroke="#dfe5ea"/>
  <text x="1112" y="188" class="sans small" fill="#5f6b76">All</text>
  <rect x="1162" y="168" width="64" height="32" rx="8" fill="#ffffff" stroke="#dfe5ea"/>
  <text x="1178" y="188" class="sans small" fill="#5f6b76">Tools</text>
  <rect x="1240" y="168" width="96" height="32" rx="8" fill="#3b82f6"/>
  <text x="1263" y="188" class="sans small" fill="#ffffff">Fullscreen</text>

  <g>
    <rect x="518" y="250" width="384" height="74" rx="16" fill="#eef6ff" stroke="#cfe3ff"/>
    <text x="542" y="280" class="sans small" fill="#3b82f6">You</text>
    <text x="542" y="304" class="sans body">更新主页截图，确认当前白色 UI 和任务看板。</text>
  </g>
  <g>
    <rect x="518" y="346" width="616" height="126" rx="16" fill="#ffffff" stroke="#dfe5ea"/>
    <text x="542" y="378" class="sans small" fill="#3b82f6">Codex</text>
    <text x="542" y="404" class="sans body">我会把 README 和 Pages 图同步到当前产品状态：</text>
    <text x="542" y="432" class="sans body">- 默认白色主题</text>
    <text x="542" y="458" class="sans body">- 会话列表、对话气泡、任务看板、全屏聊天</text>
  </g>
  <g>
    <rect x="518" y="498" width="636" height="86" rx="12" fill="#f8fafc" stroke="#edf1f4"/>
    <text x="542" y="532" class="mono" font-size="15" fill="#17202a">$ kage serve --port 9876 --password 1234</text>
    <text x="542" y="558" class="mono" font-size="15" fill="#15a074">Local board ready on the trusted LAN.</text>
  </g>

  <rect x="454" y="628" width="888" height="178" rx="14" fill="#f8fafc" stroke="#dfe5ea"/>
  <text x="478" y="660" class="sans" font-size="17" font-weight="800" fill="#17202a">Send a follow-up</text>
  <rect x="478" y="684" width="572" height="76" rx="10" fill="#ffffff" stroke="#dfe5ea"/>
  <text x="500" y="714" class="sans body">Ask Codex, Claude, or QoderCLI from the same local board...</text>
  <rect x="1068" y="684" width="96" height="34" rx="8" fill="#edf5ff" stroke="#bfdbfe"/>
  <text x="1094" y="706" class="sans small" fill="#3b82f6">Codex</text>
  <rect x="1178" y="684" width="106" height="34" rx="8" fill="#fff5ef" stroke="#f0c9b8"/>
  <text x="1203" y="706" class="sans small" fill="#cf7654">Claude</text>
  <rect x="1068" y="728" width="216" height="38" rx="8" fill="#3b82f6"/>
  <text x="1140" y="752" class="sans small" fill="#ffffff">Send</text>

  <rect x="454" y="824" width="888" height="1" fill="#edf1f4"/>
  <text x="478" y="848" class="sans muted">Local-first memory layer - search, chat, dispatch, replay, bridge</text>
</svg>
