<svg width="960" height="620" viewBox="0 0 960 620" fill="none" xmlns="http://www.w3.org/2000/svg">
  <style>
    .sans { font-family: -apple-system, BlinkMacSystemFont, "Segoe UI", sans-serif; }
    .mono { font-family: SFMono-Regular, Menlo, Consolas, monospace; }
    .body { font-size: 14px; fill: #5f6b76; }
    .small { font-size: 12px; font-weight: 800; }
  </style>
  <rect width="960" height="620" rx="28" fill="#eef1f4"/>
  <rect x="76" y="42" width="330" height="576" rx="34" fill="#17202a"/>
  <rect x="88" y="56" width="306" height="550" rx="24" fill="#f7f8fa"/>
  <rect x="88" y="56" width="306" height="64" rx="24" fill="#ffffff"/>
  <rect x="88" y="108" width="306" height="1" fill="#dfe5ea"/>
  <g transform="translate(108 76) scale(0.27)">
    <rect x="0" y="0" width="72" height="72" rx="14" fill="#12191e"/>
    <rect x="18" y="18" width="36" height="28" rx="5" fill="#f7f2e6"/>
    <rect x="23" y="23" width="26" height="18" rx="3" fill="#182026"/>
    <path d="M27 28l8 6-8 6" stroke="#f2b84b" stroke-width="5" stroke-linecap="round" stroke-linejoin="round"/>
    <path d="M39 39h9" stroke="#f7f2e6" stroke-width="4" stroke-linecap="round"/>
  </g>
  <text x="138" y="87" class="sans" font-size="17" font-weight="850" fill="#17202a">KAGE</text>
  <text x="138" y="105" class="sans" font-size="11" fill="#89939d">Local board</text>
  <rect x="318" y="78" width="32" height="26" rx="8" fill="#ffffff" stroke="#dfe5ea"/>
  <path d="M327 91h14M334 84v14" stroke="#5f6b76" stroke-width="2" stroke-linecap="round"/>
  <rect x="358" y="78" width="24" height="26" rx="8" fill="#ffffff" stroke="#dfe5ea"/>
  <circle cx="370" cy="91" r="5" stroke="#5f6b76" stroke-width="2"/>

  <rect x="108" y="138" width="264" height="38" rx="8" fill="#ffffff" stroke="#dfe5ea"/>
  <rect x="112" y="142" width="80" height="30" rx="7" fill="#17202a"/>
  <text x="135" y="162" class="sans small" fill="#ffffff">Board</text>
  <text x="218" y="162" class="sans small" fill="#5f6b76">Sessions</text>
  <text x="314" y="162" class="sans small" fill="#5f6b76">Chat</text>

  <rect x="108" y="196" width="264" height="82" rx="12" fill="#ffffff" stroke="#dfe5ea"/>
  <text x="126" y="222" class="sans small" fill="#3b82f6">CODEX</text>
  <text x="126" y="246" class="sans" font-size="15" font-weight="800" fill="#17202a">Homepage screenshot refresh</text>
  <rect x="126" y="258" width="214" height="6" rx="3" fill="#dbeafe"/>
  <rect x="126" y="258" width="136" height="6" rx="3" fill="#3b82f6"/>

  <rect x="108" y="292" width="264" height="82" rx="12" fill="#ffffff" stroke="#dfe5ea"/>
  <text x="126" y="318" class="sans small" fill="#cf7654">CLAUDE</text>
  <text x="126" y="342" class="sans" font-size="15" font-weight="800" fill="#17202a">Review markdown bubbles</text>
  <rect x="126" y="354" width="214" height="6" rx="3" fill="#f5dfd4"/>
  <rect x="126" y="354" width="190" height="6" rx="3" fill="#cf7654"/>

  <rect x="108" y="388" width="264" height="82" rx="12" fill="#ffffff" stroke="#dfe5ea"/>
  <text x="126" y="414" class="sans small" fill="#15a074">QODERCLI</text>
  <text x="126" y="438" class="sans" font-size="15" font-weight="800" fill="#17202a">Package local viewer</text>
  <rect x="126" y="450" width="214" height="6" rx="3" fill="#d5f3e8"/>
  <rect x="126" y="450" width="94" height="6" rx="3" fill="#15a074"/>

  <rect x="108" y="492" width="264" height="70" rx="12" fill="#ffffff" stroke="#dfe5ea"/>
  <text x="126" y="518" class="sans small" fill="#17202a">Dispatch a new task</text>
  <rect x="126" y="532" width="144" height="28" rx="8" fill="#f8fafc" stroke="#dfe5ea"/>
  <text x="140" y="550" class="sans" font-size="12" fill="#89939d">Select workspace...</text>
  <rect x="282" y="532" width="44" height="28" rx="8" fill="#3b82f6"/>
  <text x="295" y="550" class="sans small" fill="#ffffff">Go</text>

  <text x="468" y="168" class="sans" font-size="42" font-weight="850" fill="#17202a">Phone-friendly board</text>
  <text x="468" y="214" class="sans" font-size="20" fill="#5f6b76">The current local web UI opens in white theme,</text>
  <text x="468" y="244" class="sans" font-size="20" fill="#5f6b76">tracks queued/running/review tasks, and keeps</text>
  <text x="468" y="274" class="sans" font-size="20" fill="#5f6b76">dispatch results inside the board.</text>

  <rect x="468" y="332" width="370" height="64" rx="12" fill="#ffffff" stroke="#dfe5ea"/>
  <circle cx="498" cy="364" r="9" fill="#3b82f6"/>
  <text x="520" y="358" class="sans small" fill="#17202a">Codex is running</text>
  <text x="520" y="380" class="sans body">Animated KAGE logo and status line stay visible.</text>
  <rect x="468" y="416" width="370" height="64" rx="12" fill="#ffffff" stroke="#dfe5ea"/>
  <circle cx="498" cy="448" r="9" fill="#cf7654"/>
  <text x="520" y="442" class="sans small" fill="#17202a">Claude needs review</text>
  <text x="520" y="464" class="sans body">Open the detail panel only when context is needed.</text>
  <rect x="468" y="500" width="370" height="64" rx="12" fill="#ffffff" stroke="#dfe5ea"/>
  <circle cx="498" cy="532" r="9" fill="#15a074"/>
  <text x="520" y="526" class="sans small" fill="#17202a">QoderCLI completed</text>
  <text x="520" y="548" class="sans body">Copy logs, replay, or bridge from the same place.</text>
</svg>
