<svg width="960" height="620" viewBox="0 0 960 620" fill="none" xmlns="http://www.w3.org/2000/svg">
  <rect width="960" height="620" rx="28" fill="#0d1114"/>
  <rect x="0" y="0" width="960" height="40" fill="#151d23"/>
  <text x="22" y="26" font-family="Inter, -apple-system, BlinkMacSystemFont, sans-serif" font-size="14" fill="#f7f2e6">Finder</text>
  <text x="790" y="26" font-family="Inter, -apple-system, BlinkMacSystemFont, sans-serif" font-size="14" fill="#a7b2ba">Tue 8:19 PM</text>
  <rect x="702" y="7" width="72" height="26" rx="13" fill="#1b252c" stroke="#2a343c"/>
  <g transform="translate(712 8) scale(0.34)">
    <g fill="none" stroke="#f7f2e6" stroke-linecap="round" stroke-linejoin="round">
      <rect x="10" y="10" width="44" height="38" rx="10" stroke-width="5"/>
      <path d="M23 25l9 7-9 7" stroke-width="5.8"/>
      <path d="M37 39h9" stroke-width="5"/>
    </g>
    <circle cx="18" cy="55" r="3.2" fill="#f7f2e6"/>
    <circle cx="32" cy="56" r="3.2" fill="#f7f2e6"/>
    <circle cx="46" cy="55" r="3.2" fill="#f7f2e6"/>
  </g>
  <text x="748" y="26" font-family="Inter, -apple-system, BlinkMacSystemFont, sans-serif" font-size="14" font-weight="800" fill="#f7f2e6">12</text>

  <path d="M738 40l-12 16h24l-12-16z" fill="#11171c"/>
  <rect x="520" y="52" width="400" height="522" rx="22" fill="#11171c" stroke="#2a343c"/>
  <rect x="540" y="74" width="360" height="72" rx="12" fill="#141a1f" stroke="#2a343c"/>
  <text x="578" y="104" font-family="Inter, -apple-system, BlinkMacSystemFont, sans-serif" font-size="17" font-weight="800" fill="#f7f2e6">kage</text>
  <text x="578" y="128" font-family="SFMono-Regular, Menlo, monospace" font-size="12" fill="#74818a">~/wrksp/kage</text>
  <circle cx="560" cy="109" r="10" stroke="#74818a" stroke-width="2"/>
  <path d="M560 94v30M545 109h30" stroke="#74818a" stroke-width="2"/>

  <rect x="540" y="164" width="360" height="36" rx="8" fill="#172029" stroke="#2a343c"/>
  <rect x="544" y="168" width="58" height="28" rx="6" fill="#24313a"/>
  <text x="566" y="187" font-family="Inter, -apple-system, BlinkMacSystemFont, sans-serif" font-size="13" font-weight="800" fill="#f7f2e6">All</text>
  <text x="626" y="187" font-family="Inter, -apple-system, BlinkMacSystemFont, sans-serif" font-size="13" font-weight="800" fill="#a7b2ba">Codex</text>
  <text x="704" y="187" font-family="Inter, -apple-system, BlinkMacSystemFont, sans-serif" font-size="13" font-weight="800" fill="#a7b2ba">Claude</text>
  <text x="796" y="187" font-family="Inter, -apple-system, BlinkMacSystemFont, sans-serif" font-size="13" font-weight="800" fill="#a7b2ba">QoderCLI</text>

  <line x1="540" y1="220" x2="900" y2="220" stroke="#2a343c"/>
  <rect x="540" y="238" width="360" height="78" rx="8" fill="#18261f" stroke="#4cc38a"/>
  <text x="564" y="266" font-family="Inter, -apple-system, BlinkMacSystemFont, sans-serif" font-size="12" font-weight="900" fill="#4cc38a">CODEX</text>
  <text x="564" y="294" font-family="Inter, -apple-system, BlinkMacSystemFont, sans-serif" font-size="17" font-weight="800" fill="#f7f2e6">Homepage release audit</text>
  <text x="830" y="266" font-family="Inter, -apple-system, BlinkMacSystemFont, sans-serif" font-size="12" fill="#a7b2ba">now</text>

  <rect x="540" y="328" width="360" height="78" rx="8" fill="#141a1f" stroke="#2a343c"/>
  <text x="564" y="356" font-family="Inter, -apple-system, BlinkMacSystemFont, sans-serif" font-size="12" font-weight="900" fill="#c7a7ff">CLAUDE CODE</text>
  <text x="564" y="384" font-family="Inter, -apple-system, BlinkMacSystemFont, sans-serif" font-size="17" font-weight="800" fill="#f7f2e6">Session loading plan</text>
  <text x="830" y="356" font-family="Inter, -apple-system, BlinkMacSystemFont, sans-serif" font-size="12" fill="#a7b2ba">8m</text>

  <line x1="540" y1="428" x2="900" y2="428" stroke="#2a343c"/>
  <text x="540" y="458" font-family="Inter, -apple-system, BlinkMacSystemFont, sans-serif" font-size="17" font-weight="800" fill="#f7f2e6">Actions</text>
  <rect x="540" y="476" width="82" height="34" rx="8" fill="#4cc38a"/>
  <text x="565" y="498" font-family="Inter, -apple-system, BlinkMacSystemFont, sans-serif" font-size="14" font-weight="800" fill="#07110c">New</text>
  <rect x="634" y="476" width="108" height="34" rx="8" fill="#192229" stroke="#2a343c"/>
  <text x="666" y="498" font-family="Inter, -apple-system, BlinkMacSystemFont, sans-serif" font-size="14" font-weight="800" fill="#f7f2e6">Bridge</text>
  <rect x="754" y="476" width="104" height="34" rx="8" fill="#192229" stroke="#2a343c"/>
  <text x="782" y="498" font-family="Inter, -apple-system, BlinkMacSystemFont, sans-serif" font-size="14" font-weight="800" fill="#f7f2e6">Refresh</text>

  <line x1="540" y1="530" x2="900" y2="530" stroke="#2a343c"/>
  <text x="540" y="554" font-family="SFMono-Regular, Menlo, monospace" font-size="12" fill="#74818a">~/wrksp/kage</text>
  <text x="812" y="554" font-family="Inter, -apple-system, BlinkMacSystemFont, sans-serif" font-size="13" font-weight="800" fill="#4cc38a">KAGE 0.1.11</text>

  <text x="70" y="186" font-family="Inter, -apple-system, BlinkMacSystemFont, sans-serif" font-size="38" font-weight="850" fill="#f7f2e6">Menu bar control</text>
  <text x="70" y="236" font-family="Inter, -apple-system, BlinkMacSystemFont, sans-serif" font-size="19" fill="#a7b2ba">KAGE stays close in the macOS status bar.</text>
  <text x="70" y="270" font-family="Inter, -apple-system, BlinkMacSystemFont, sans-serif" font-size="19" fill="#a7b2ba">Open a new agent session, refresh the local</text>
  <text x="70" y="304" font-family="Inter, -apple-system, BlinkMacSystemFont, sans-serif" font-size="19" fill="#a7b2ba">workspace, or jump into the desktop surface.</text>
</svg>
